<svg id="Layer_1" enable-background="new 0 0 64 64" viewBox="0 0 64 64" xmlns="http://www.w3.org/2000/svg"><g fill="#333"><path d="m26.8 26.1c-1.2.3-2.8.4-3.6 1.3-1.1 1.1 0 3.8-1.2 4.7-1 .7-3.7-1.7-5.2-1.3-1.6.3-1.4 2.5-.6 3.4.6.6 2.5 1.7 2.5 2.8s-2.7 1.7-3.4 1.1c-1.4-1.1-1.9-2.6-2.9-4-.7-1-1.2-.3-1.9-.6-.1-.1-.2-.1-.3-.2v-9.5c0-.5.3-.9.8-.9l9.4-1.5c.4.6.8 1.2 1.2 1.1.8-.1 1.3-.6 1.7-1.2l.6.2c.7.8 1.3 1.6 1.8 2.5z"/><path d="m40.1 40.9c-.8 1.2-1.1 2.2-1.6 3.6-.3.9-1.4.9-2.1 1.3-1.2.7-1.3 2.4-1.7 3.6-.4 1-1.3 1.2-2 1.9-.9 1.1 0 1.8-.4 3-.2.8-1.3.3-1.9.7-.2.1-.3.3-.3.4l-3.4-.9c.4-1.4 1-2.7 1-4.2 0-1.4-.7-2.4-1.9-3.1-1.4-.7-2.8-2-3.3-3.5-.5-1.4.1-2.4.5-3.7.5-1.8-.3-6 2.3-6.5 1.2-.2 1.2 1.3 2.3 1.3.6 0 1.2-.5 1.7-.9 1.6-1.2 3.4.3 4.5 1.5.8.9 1.6 2.1 2.7 2.6 1.2.6 2.7.2 3.8.8.7.5.3 1.3-.2 2.1z"/><path d="m53.8 25.1v25.5c-.4-.2-.8-.6-.8-.6-1.9-1.9-3.7-2.6-3.4-5.3.2-2 1.8-3.6.5-5.6-1.1-1.6-2.9-1.2-4.5-.9-1.7.4-2.5-.4-3.2-2.1-.3-.7-.3-1.5-.4-2.2-.2-1.1-1.2-2.8-.7-3.9.8-1.7 2.2-2.9 3-4.6l8.5-1.3c.3 0 .6 0 .8.2.1.3.2.5.2.8z"/><path d="m56.8 20.6c-1.3-1.1-3.1-1.6-4.8-1.4l-9.7 1.5c-.4.1-.8 0-1.2-.1h-.2c-.8.8-1.5 1.7-2.2 2.7l1.5.4c.8.2 1.6.2 2.4.1l9.7-1.5c.8-.1 1.7.1 2.3.7s1 1.4 1 2.2v30.7c0 1.4-1 2.6-2.5 2.9l-11 1.7c-.4.1-.8 0-1.2-.1l-17.5-4.5c-.5-.1-1-.2-1.5-.2-.3 0-.7 0-1 .1l-9.6 1.6c-.8.1-1.7-.1-2.3-.7s-1-1.4-1-2.2v-30.8c0-1.4 1-2.6 2.4-2.9l11-1.8c-.7-.9-1.2-1.9-1.6-2.9l-10 1.6c-2.9.5-5 3-5 5.9v30.6c0 1.8.8 3.4 2.1 4.6 1.3 1.1 3.1 1.6 4.9 1.4l9.6-1.6c.4-.1.8 0 1.2.1l17.5 4.5c.5.1 1 .2 1.5.2.3 0 .6 0 .9-.1l11-1.7c1.4-.2 2.7-.9 3.7-2 .9-1.1 1.4-2.5 1.4-3.9v-30.6c.3-1.7-.5-3.4-1.8-4.5z"/><path d="m39.8 3.7c-2-2-4.7-3.2-7.6-3.2-3 0-5.8 1.1-7.9 3.2s-3.3 4.9-3.3 7.8 1.1 5.7 3.2 7.8c1.1 1.1 2.1 2.3 2.8 3.7l3.4 5.9c.7 1.2 2.4 1.2 3 0l3.4-5.9c.8-1.3 1.7-2.6 2.8-3.7 2.1-2.1 3.2-4.8 3.2-7.8.2-2.9-.9-5.7-3-7.8zm-7.8 15.3c-4.2 0-7.6-3.4-7.6-7.5s3.4-7.5 7.6-7.5 7.6 3.4 7.6 7.5-3.4 7.5-7.6 7.5z"/></g></svg>